<mxfile host="app.diagrams.net" agent="Mozilla/5.0 (Windows NT 10.0; Win64; x64) AppleWebKit/537.36 (KHTML, like Gecko) Chrome/129.0.0.0 Safari/537.36" version="24.7.17">
  <diagram name="Page-1" id="SwdBq-QnYeufkgLIzcqt">
    <mxGraphModel dx="1379" dy="595" grid="1" gridSize="10" guides="1" tooltips="1" connect="1" arrows="1" fold="1" page="1" pageScale="1" pageWidth="850" pageHeight="1100" math="0" shadow="0">
      <root>
        <mxCell id="0" />
        <mxCell id="1" parent="0" />
        <mxCell id="tueGZKquYQ9TgoHm4wM4-1" value="Start" style="whiteSpace=wrap;strokeWidth=2;" parent="1" vertex="1">
          <mxGeometry x="944" y="20" width="95" height="49" as="geometry" />
        </mxCell>
        <mxCell id="tueGZKquYQ9TgoHm4wM4-2" value="Display Menu" style="whiteSpace=wrap;strokeWidth=2;" parent="1" vertex="1">
          <mxGeometry x="915" y="119" width="153" height="49" as="geometry" />
        </mxCell>
        <mxCell id="tueGZKquYQ9TgoHm4wM4-3" value="Choose option" style="rhombus;strokeWidth=2;whiteSpace=wrap;" parent="1" vertex="1">
          <mxGeometry x="916" y="217" width="150" height="150" as="geometry" />
        </mxCell>
        <mxCell id="tueGZKquYQ9TgoHm4wM4-4" value="Add Character" style="whiteSpace=wrap;strokeWidth=2;" parent="1" vertex="1">
          <mxGeometry x="20" y="440" width="164" height="49" as="geometry" />
        </mxCell>
        <mxCell id="tueGZKquYQ9TgoHm4wM4-5" value="Show Characters" style="whiteSpace=wrap;strokeWidth=2;" parent="1" vertex="1">
          <mxGeometry x="276" y="440" width="179" height="49" as="geometry" />
        </mxCell>
        <mxCell id="tueGZKquYQ9TgoHm4wM4-6" value="Change Character" style="whiteSpace=wrap;strokeWidth=2;" parent="1" vertex="1">
          <mxGeometry x="633" y="440" width="188" height="49" as="geometry" />
        </mxCell>
        <mxCell id="tueGZKquYQ9TgoHm4wM4-7" value="Delete Character" style="whiteSpace=wrap;strokeWidth=2;" parent="1" vertex="1">
          <mxGeometry x="1172" y="440" width="183" height="49" as="geometry" />
        </mxCell>
        <mxCell id="tueGZKquYQ9TgoHm4wM4-8" value="Check Interaction" style="whiteSpace=wrap;strokeWidth=2;" parent="1" vertex="1">
          <mxGeometry x="1521" y="440" width="187" height="49" as="geometry" />
        </mxCell>
        <mxCell id="tueGZKquYQ9TgoHm4wM4-9" value="Exit" style="whiteSpace=wrap;strokeWidth=2;" parent="1" vertex="1">
          <mxGeometry x="1825" y="440" width="88" height="49" as="geometry" />
        </mxCell>
        <mxCell id="tueGZKquYQ9TgoHm4wM4-10" value="Display Error" style="whiteSpace=wrap;strokeWidth=2;" parent="1" vertex="1">
          <mxGeometry x="970" y="440" width="152" height="49" as="geometry" />
        </mxCell>
        <mxCell id="tueGZKquYQ9TgoHm4wM4-11" value="Input Name, Age, Gender, MBTI" style="whiteSpace=wrap;strokeWidth=2;" parent="1" vertex="1">
          <mxGeometry x="38" y="539" width="245" height="66" as="geometry" />
        </mxCell>
        <mxCell id="tueGZKquYQ9TgoHm4wM4-12" value="Display Characters Info" style="whiteSpace=wrap;strokeWidth=2;" parent="1" vertex="1">
          <mxGeometry x="333" y="547" width="225" height="49" as="geometry" />
        </mxCell>
        <mxCell id="tueGZKquYQ9TgoHm4wM4-13" value="Input Character Name to Change" style="whiteSpace=wrap;strokeWidth=2;" parent="1" vertex="1">
          <mxGeometry x="608" y="539" width="238" height="66" as="geometry" />
        </mxCell>
        <mxCell id="tueGZKquYQ9TgoHm4wM4-14" value="Input New Name, Age, Gender, MBTI" style="whiteSpace=wrap;strokeWidth=2;" parent="1" vertex="1">
          <mxGeometry x="694" y="655" width="220" height="66" as="geometry" />
        </mxCell>
        <mxCell id="tueGZKquYQ9TgoHm4wM4-15" value="Input Character Name to Delete" style="whiteSpace=wrap;strokeWidth=2;" parent="1" vertex="1">
          <mxGeometry x="1145" y="539" width="238" height="66" as="geometry" />
        </mxCell>
        <mxCell id="tueGZKquYQ9TgoHm4wM4-16" value="Delete Character" style="whiteSpace=wrap;strokeWidth=2;" parent="1" vertex="1">
          <mxGeometry x="1249" y="664" width="183" height="49" as="geometry" />
        </mxCell>
        <mxCell id="tueGZKquYQ9TgoHm4wM4-17" value="Input Character MBTI" style="whiteSpace=wrap;strokeWidth=2;" parent="1" vertex="1">
          <mxGeometry x="1509" y="547" width="212" height="49" as="geometry" />
        </mxCell>
        <mxCell id="tueGZKquYQ9TgoHm4wM4-18" value="Input Con-MbtiÂ " style="whiteSpace=wrap;strokeWidth=2;" parent="1" vertex="1">
          <mxGeometry x="1503" y="664" width="224" height="49" as="geometry" />
        </mxCell>
        <mxCell id="tueGZKquYQ9TgoHm4wM4-19" value="Output mbti check interaction" style="whiteSpace=wrap;strokeWidth=2;" parent="1" vertex="1">
          <mxGeometry x="1687" y="771" width="242" height="49" as="geometry" />
        </mxCell>
        <mxCell id="tueGZKquYQ9TgoHm4wM4-20" value="&quot;Thank you for using the program, we&#39;ll see you later, adios!&quot;" style="whiteSpace=wrap;strokeWidth=2;" parent="1" vertex="1">
          <mxGeometry x="1771" y="547" width="196" height="49" as="geometry" />
        </mxCell>
        <mxCell id="tueGZKquYQ9TgoHm4wM4-21" value="End" style="whiteSpace=wrap;strokeWidth=2;" parent="1" vertex="1">
          <mxGeometry x="1826" y="664" width="86" height="49" as="geometry" />
        </mxCell>
        <mxCell id="tueGZKquYQ9TgoHm4wM4-22" value="" style="curved=1;startArrow=none;endArrow=block;exitX=0.5;exitY=0.99;entryX=0.5;entryY=-0.01;rounded=0;" parent="1" source="tueGZKquYQ9TgoHm4wM4-1" target="tueGZKquYQ9TgoHm4wM4-2" edge="1">
          <mxGeometry relative="1" as="geometry">
            <Array as="points" />
          </mxGeometry>
        </mxCell>
        <mxCell id="tueGZKquYQ9TgoHm4wM4-23" value="" style="curved=1;startArrow=none;endArrow=block;exitX=0.5;exitY=0.99;entryX=0.5;entryY=0;rounded=0;" parent="1" source="tueGZKquYQ9TgoHm4wM4-2" target="tueGZKquYQ9TgoHm4wM4-3" edge="1">
          <mxGeometry relative="1" as="geometry">
            <Array as="points" />
          </mxGeometry>
        </mxCell>
        <mxCell id="tueGZKquYQ9TgoHm4wM4-24" value="1" style="curved=1;startArrow=none;endArrow=block;exitX=0;exitY=0.56;entryX=0.5;entryY=0;rounded=0;" parent="1" source="tueGZKquYQ9TgoHm4wM4-3" target="tueGZKquYQ9TgoHm4wM4-4" edge="1">
          <mxGeometry relative="1" as="geometry">
            <Array as="points">
              <mxPoint x="102" y="404" />
            </Array>
          </mxGeometry>
        </mxCell>
        <mxCell id="tueGZKquYQ9TgoHm4wM4-25" value="2" style="curved=1;startArrow=none;endArrow=block;exitX=0;exitY=0.59;entryX=0.5;entryY=0;rounded=0;" parent="1" source="tueGZKquYQ9TgoHm4wM4-3" target="tueGZKquYQ9TgoHm4wM4-5" edge="1">
          <mxGeometry relative="1" as="geometry">
            <Array as="points">
              <mxPoint x="365" y="404" />
            </Array>
          </mxGeometry>
        </mxCell>
        <mxCell id="tueGZKquYQ9TgoHm4wM4-26" value="3" style="curved=1;startArrow=none;endArrow=block;exitX=0;exitY=0.71;entryX=0.5;entryY=0;rounded=0;" parent="1" source="tueGZKquYQ9TgoHm4wM4-3" target="tueGZKquYQ9TgoHm4wM4-6" edge="1">
          <mxGeometry relative="1" as="geometry">
            <Array as="points">
              <mxPoint x="727" y="404" />
            </Array>
          </mxGeometry>
        </mxCell>
        <mxCell id="tueGZKquYQ9TgoHm4wM4-27" value="4" style="curved=1;startArrow=none;endArrow=block;exitX=1;exitY=0.71;entryX=0.5;entryY=0;rounded=0;" parent="1" source="tueGZKquYQ9TgoHm4wM4-3" target="tueGZKquYQ9TgoHm4wM4-7" edge="1">
          <mxGeometry relative="1" as="geometry">
            <Array as="points">
              <mxPoint x="1264" y="404" />
            </Array>
          </mxGeometry>
        </mxCell>
        <mxCell id="tueGZKquYQ9TgoHm4wM4-28" value="5" style="curved=1;startArrow=none;endArrow=block;exitX=1;exitY=0.59;entryX=0.5;entryY=0;rounded=0;" parent="1" source="tueGZKquYQ9TgoHm4wM4-3" target="tueGZKquYQ9TgoHm4wM4-8" edge="1">
          <mxGeometry relative="1" as="geometry">
            <Array as="points">
              <mxPoint x="1615" y="404" />
            </Array>
          </mxGeometry>
        </mxCell>
        <mxCell id="tueGZKquYQ9TgoHm4wM4-29" value="6" style="curved=1;startArrow=none;endArrow=block;exitX=1;exitY=0.57;entryX=0.5;entryY=0;rounded=0;" parent="1" source="tueGZKquYQ9TgoHm4wM4-3" target="tueGZKquYQ9TgoHm4wM4-9" edge="1">
          <mxGeometry relative="1" as="geometry">
            <Array as="points">
              <mxPoint x="1869" y="404" />
            </Array>
          </mxGeometry>
        </mxCell>
        <mxCell id="tueGZKquYQ9TgoHm4wM4-30" value="Other" style="curved=1;startArrow=none;endArrow=block;exitX=0.5;exitY=1;entryX=0.36;entryY=0;rounded=0;" parent="1" source="tueGZKquYQ9TgoHm4wM4-3" target="tueGZKquYQ9TgoHm4wM4-10" edge="1">
          <mxGeometry relative="1" as="geometry">
            <Array as="points">
              <mxPoint x="991" y="404" />
            </Array>
          </mxGeometry>
        </mxCell>
        <mxCell id="tueGZKquYQ9TgoHm4wM4-31" value="" style="curved=1;startArrow=none;endArrow=block;exitX=0.5;exitY=0.99;entryX=0.36;entryY=-0.01;rounded=0;" parent="1" source="tueGZKquYQ9TgoHm4wM4-4" target="tueGZKquYQ9TgoHm4wM4-11" edge="1">
          <mxGeometry relative="1" as="geometry">
            <Array as="points">
              <mxPoint x="102" y="514" />
            </Array>
          </mxGeometry>
        </mxCell>
        <mxCell id="tueGZKquYQ9TgoHm4wM4-32" value="" style="curved=1;startArrow=none;endArrow=block;exitX=0.69;exitY=-0.01;entryX=0;entryY=0.59;rounded=0;" parent="1" source="tueGZKquYQ9TgoHm4wM4-11" target="tueGZKquYQ9TgoHm4wM4-2" edge="1">
          <mxGeometry relative="1" as="geometry">
            <Array as="points">
              <mxPoint x="241" y="514" />
              <mxPoint x="241" y="192" />
            </Array>
          </mxGeometry>
        </mxCell>
        <mxCell id="tueGZKquYQ9TgoHm4wM4-33" value="" style="curved=1;startArrow=none;endArrow=block;exitX=0.5;exitY=0.99;entryX=0.35;entryY=0.01;rounded=0;" parent="1" source="tueGZKquYQ9TgoHm4wM4-5" target="tueGZKquYQ9TgoHm4wM4-12" edge="1">
          <mxGeometry relative="1" as="geometry">
            <Array as="points">
              <mxPoint x="365" y="514" />
            </Array>
          </mxGeometry>
        </mxCell>
        <mxCell id="tueGZKquYQ9TgoHm4wM4-34" value="" style="curved=1;startArrow=none;endArrow=block;exitX=0.64;exitY=0.01;entryX=0;entryY=0.65;rounded=0;" parent="1" source="tueGZKquYQ9TgoHm4wM4-12" target="tueGZKquYQ9TgoHm4wM4-2" edge="1">
          <mxGeometry relative="1" as="geometry">
            <Array as="points">
              <mxPoint x="522" y="514" />
              <mxPoint x="522" y="192" />
            </Array>
          </mxGeometry>
        </mxCell>
        <mxCell id="tueGZKquYQ9TgoHm4wM4-35" value="" style="curved=1;startArrow=none;endArrow=block;exitX=0.5;exitY=0.99;entryX=0.5;entryY=-0.01;rounded=0;" parent="1" source="tueGZKquYQ9TgoHm4wM4-6" target="tueGZKquYQ9TgoHm4wM4-13" edge="1">
          <mxGeometry relative="1" as="geometry">
            <Array as="points" />
          </mxGeometry>
        </mxCell>
        <mxCell id="tueGZKquYQ9TgoHm4wM4-36" value="" style="curved=1;startArrow=none;endArrow=block;exitX=0.5;exitY=1;entryX=0.3;entryY=0;rounded=0;" parent="1" source="tueGZKquYQ9TgoHm4wM4-13" target="tueGZKquYQ9TgoHm4wM4-14" edge="1">
          <mxGeometry relative="1" as="geometry">
            <Array as="points">
              <mxPoint x="727" y="630" />
            </Array>
          </mxGeometry>
        </mxCell>
        <mxCell id="tueGZKquYQ9TgoHm4wM4-37" value="" style="curved=1;startArrow=none;endArrow=block;exitX=0.7;exitY=0;entryX=0.14;entryY=0.99;rounded=0;" parent="1" source="tueGZKquYQ9TgoHm4wM4-14" target="tueGZKquYQ9TgoHm4wM4-2" edge="1">
          <mxGeometry relative="1" as="geometry">
            <Array as="points">
              <mxPoint x="881" y="630" />
              <mxPoint x="881" y="192" />
            </Array>
          </mxGeometry>
        </mxCell>
        <mxCell id="tueGZKquYQ9TgoHm4wM4-38" value="" style="curved=1;startArrow=none;endArrow=block;exitX=0.5;exitY=0.99;entryX=0.5;entryY=-0.01;rounded=0;" parent="1" source="tueGZKquYQ9TgoHm4wM4-7" target="tueGZKquYQ9TgoHm4wM4-15" edge="1">
          <mxGeometry relative="1" as="geometry">
            <Array as="points" />
          </mxGeometry>
        </mxCell>
        <mxCell id="tueGZKquYQ9TgoHm4wM4-39" value="" style="curved=1;startArrow=none;endArrow=block;exitX=0.5;exitY=1;entryX=0.33;entryY=-0.01;rounded=0;" parent="1" source="tueGZKquYQ9TgoHm4wM4-15" target="tueGZKquYQ9TgoHm4wM4-16" edge="1">
          <mxGeometry relative="1" as="geometry">
            <Array as="points">
              <mxPoint x="1264" y="630" />
            </Array>
          </mxGeometry>
        </mxCell>
        <mxCell id="tueGZKquYQ9TgoHm4wM4-40" value="" style="curved=1;startArrow=none;endArrow=block;exitX=0.68;exitY=-0.01;entryX=1;entryY=0.67;rounded=0;" parent="1" source="tueGZKquYQ9TgoHm4wM4-16" target="tueGZKquYQ9TgoHm4wM4-2" edge="1">
          <mxGeometry relative="1" as="geometry">
            <Array as="points">
              <mxPoint x="1418" y="630" />
              <mxPoint x="1418" y="192" />
            </Array>
          </mxGeometry>
        </mxCell>
        <mxCell id="tueGZKquYQ9TgoHm4wM4-41" value="" style="curved=1;startArrow=none;endArrow=block;exitX=0.5;exitY=0.99;entryX=0.5;entryY=0.01;rounded=0;" parent="1" source="tueGZKquYQ9TgoHm4wM4-8" target="tueGZKquYQ9TgoHm4wM4-17" edge="1">
          <mxGeometry relative="1" as="geometry">
            <Array as="points" />
          </mxGeometry>
        </mxCell>
        <mxCell id="tueGZKquYQ9TgoHm4wM4-42" value="" style="curved=1;startArrow=none;endArrow=block;exitX=0.5;exitY=1;entryX=0.5;entryY=-0.01;rounded=0;" parent="1" source="tueGZKquYQ9TgoHm4wM4-17" target="tueGZKquYQ9TgoHm4wM4-18" edge="1">
          <mxGeometry relative="1" as="geometry">
            <Array as="points" />
          </mxGeometry>
        </mxCell>
        <mxCell id="tueGZKquYQ9TgoHm4wM4-43" value="" style="curved=1;startArrow=none;endArrow=block;exitX=0.5;exitY=0.99;entryX=0.11;entryY=0;rounded=0;" parent="1" source="tueGZKquYQ9TgoHm4wM4-18" target="tueGZKquYQ9TgoHm4wM4-19" edge="1">
          <mxGeometry relative="1" as="geometry">
            <Array as="points">
              <mxPoint x="1615" y="746" />
            </Array>
          </mxGeometry>
        </mxCell>
        <mxCell id="tueGZKquYQ9TgoHm4wM4-44" value="" style="curved=1;startArrow=none;endArrow=block;exitX=0.9;exitY=0;entryX=1;entryY=0.57;rounded=0;" parent="1" source="tueGZKquYQ9TgoHm4wM4-19" target="tueGZKquYQ9TgoHm4wM4-2" edge="1">
          <mxGeometry relative="1" as="geometry">
            <Array as="points">
              <mxPoint x="2002" y="746" />
              <mxPoint x="2002" y="192" />
            </Array>
          </mxGeometry>
        </mxCell>
        <mxCell id="tueGZKquYQ9TgoHm4wM4-45" value="" style="curved=1;startArrow=none;endArrow=block;exitX=0.5;exitY=0.99;entryX=0.5;entryY=0.01;rounded=0;" parent="1" source="tueGZKquYQ9TgoHm4wM4-9" target="tueGZKquYQ9TgoHm4wM4-20" edge="1">
          <mxGeometry relative="1" as="geometry">
            <Array as="points" />
          </mxGeometry>
        </mxCell>
        <mxCell id="tueGZKquYQ9TgoHm4wM4-46" value="" style="curved=1;startArrow=none;endArrow=block;exitX=0.5;exitY=1;entryX=0.5;entryY=-0.01;rounded=0;" parent="1" source="tueGZKquYQ9TgoHm4wM4-20" target="tueGZKquYQ9TgoHm4wM4-21" edge="1">
          <mxGeometry relative="1" as="geometry">
            <Array as="points" />
          </mxGeometry>
        </mxCell>
        <mxCell id="tueGZKquYQ9TgoHm4wM4-47" value="" style="curved=1;startArrow=none;endArrow=block;exitX=0.75;exitY=0;entryX=0.98;entryY=0.99;rounded=0;" parent="1" source="tueGZKquYQ9TgoHm4wM4-10" target="tueGZKquYQ9TgoHm4wM4-2" edge="1">
          <mxGeometry relative="1" as="geometry">
            <Array as="points">
              <mxPoint x="1142" y="404" />
              <mxPoint x="1142" y="192" />
            </Array>
          </mxGeometry>
        </mxCell>
        <mxCell id="md9tMV2-vDhAB1sW5sZ3-2" value="bingung gimana cara biki flowchartnya hueeeee" style="rounded=0;whiteSpace=wrap;html=1;" vertex="1" parent="1">
          <mxGeometry x="1025" y="765.5" width="120" height="60" as="geometry" />
        </mxCell>
        <mxCell id="md9tMV2-vDhAB1sW5sZ3-3" value="17" style="rounded=0;whiteSpace=wrap;html=1;" vertex="1" parent="1">
          <mxGeometry x="1160" y="840" width="120" height="60" as="geometry" />
        </mxCell>
      </root>
    </mxGraphModel>
  </diagram>
</mxfile>
